PathFileType	4	(X/Y/Z)	/Users/niels/Desktop/University/Third Semester/Perception and Action/Exam/Gymnastics Motion Tracking/Code for Gym Tracking/Scripts/Analyzed Data/Start Salto/st_salto_good_id12_1_Sports2D/st_salto_good_id12_1_Sports2D_px_person00.trc
DataRate	CameraRate	NumFrames	NumMarkers	Units	OrigDataRate	OrigDataStartFrame	OrigNumFrames
29.83050847457627	29.83050847457627	6	22	m	29.83050847457627	0	177
Frame#	Time	Hip			RHip			RKnee			RAnkle			RBigToe			RSmallToe			RHeel			LHip			LKnee			LAnkle			LBigToe			LSmallToe			LHeel			Neck			Head			Nose			RShoulder			RElbow			RWrist			LShoulder			LElbow			LWrist		
		X1	Y1	Z1	X2	Y2	Z2	X3	Y3	Z3	X4	Y4	Z4	X5	Y5	Z5	X6	Y6	Z6	X7	Y7	Z7	X8	Y8	Z8	X9	Y9	Z9	X10	Y10	Z10	X11	Y11	Z11	X12	Y12	Z12	X13	Y13	Z13	X14	Y14	Z14	X15	Y15	Z15	X16	Y16	Z16	X17	Y17	Z17	X18	Y18	Z18	X19	Y19	Z19	X20	Y20	Z20	X21	Y21	Z21	X22	Y22	Z22
0	0.0	-0.01607352649417876	-0.45716144330219793	0.0	-0.0018368211889776829	-0.4571653847846927	0.0	0.06695760854054979	-0.5029437175974272	0.0	0.04558182658860002	-0.6459500583588389	0.0	0.10707410030999942	-0.6645212933038028	0.0	0.09563296771591515	-0.6702464539337661	0.0	0.02844589689033395	-0.6659795710725753	0.0	-0.007461096152557671	-0.4600229136735434	0.0	0.019898164256226435	-0.5771903528560677	0.0	0.012611651603376918	-0.6187932344629437	0.0	0.09118881722630988	-0.647410405725876	0.0	0.08832703228230052	-0.6545398741392515	0.0	0.008285914494467816	-0.6031215888982204	0.0	-0.004489530536938091	-0.2998686670035729	0.0	0.038431602359788763	-0.23692865401245228	0.0	0.03700686334847482	-0.28414083805313045	0.0	0.005403567181517381	-0.3170053872341929	0.0	0.03815174370256831	-0.39849960210210106	0.0	0.08683772983691408	-0.40145940412411973	0.0	0.014113998159068573	-0.3184784465462308	0.0	0.03843413902572954	-0.399983721646793	0.0	0.08278697485718212	-0.3972237104165924	0.0
1	0.033522727272727273	-0.016019637336056398	-0.45716700709105956	0.0	-0.001766273532605523	-0.4571718654381388	0.0	0.0669879814844635	-0.5029611191630426	0.0	0.04563406715058443	-0.6459656334451535	0.0	0.10713012351955764	-0.6645307151838735	0.0	0.09568987541075018	-0.6702559275749237	0.0	0.028498719815171512	-0.6659947132654334	0.0	-0.007402388908590105	-0.46002740358312944	0.0	0.019915674765573568	-0.5772170552001985	0.0	0.01267356457373278	-0.6187973234352744	0.0	0.09127813461597377	-0.6474069258516673	0.0	0.08842135651587986	-0.6545461892025838	0.0	0.008364023417573701	-0.6030862401575173	0.0	-0.004436146643657982	-0.2998852653596859	0.0	0.03847875924799051	-0.2369507718635972	0.0	0.037042428972499195	-0.2841508555456486	0.0	0.005508830318836486	-0.3170274098160172	0.0	0.03829951599122433	-0.39851258954736135	0.0	0.08707015100347648	-0.40144304416073906	0.0	0.014154147704826583	-0.31848580708940166	0.0	0.03849817414297076	-0.3999958998142389	0.0	0.08285027141255756	-0.39722790595649005	0.0
2	0.06704545454545455	-0.016049160159134976	-0.4571657144498863	0.0	-0.0017246075534343383	-0.45716961829497516	0.0	0.0668593295817537	-0.5029673298240416	0.0	0.045495057471138724	-0.6459679795536579	0.0	0.1069978281606648	-0.6645348991408492	0.0	0.0955596040060254	-0.6702569703555891	0.0	0.028344585789621273	-0.6659905673261639	0.0	-0.007444376246392546	-0.46002332055423095	0.0	0.019677777132771426	-0.5773156420366816	0.0	0.01260326142816659	-0.6187700730897866	0.0	0.09130584334678649	-0.647355765874492	0.0	0.08845901802469529	-0.6545259505535675	0.0	0.008345621940945118	-0.6029507022963227	0.0	-0.004560402970908259	-0.29989490761650855	0.0	0.03833072840334866	-0.2369817136573634	0.0	0.03687042119874956	-0.2841470520732161	0.0	0.005552996977310537	-0.3170622843787266	0.0	0.03851238251968635	-0.39854380123453365	0.0	0.08739081050990316	-0.40135718128922665	0.0	0.013998095549892453	-0.3184666369734379	0.0	0.038378340090345874	-0.3999903407617782	0.0	0.08271529301766428	-0.3971428006753139	0.0
3	0.10056818181818182	-0.016261448991555374	-0.457148657218151	0.0	-0.0017801409008486586	-0.4571476971243443	0.0	0.06642953579911348	-0.5029423713422108	0.0	0.04498361101301244	-0.6459367453479363	0.0	0.10649580920941797	-0.6645236596038768	0.0	0.0950610464146229	-0.6702369080224324	0.0	0.027789851719124497	-0.6659424063677292	0.0	-0.007702848967722589	-0.46000113863427106	0.0	0.018976658564977173	-0.5775239272956851	0.0	0.012258621059375937	-0.6186847158962263	0.0	0.09116619550903418	-0.6472225421116321	0.0	0.0883347988754876	-0.6544546149659842	0.0	0.008105454624327322	-0.6026610513052663	0.0	-0.0050337694829217594	-0.2998813964174485	0.0	0.03780661885920033	-0.23701380659475646	0.0	0.03630800294073836	-0.28411225378896343	0.0	0.005420290350026209	-0.31710549730103477	0.0	0.03874380120473989	-0.3985987596085654	0.0	0.08771563095114117	-0.40115907250033805	0.0	0.013468751387382358	-0.31839572733528765	0.0	0.037891415853960116	-0.3999454473890139	0.0	0.0821882257049261	-0.3968969944153256	0.0
4	0.1340909090909091	-0.01677772405993638	-0.45710455990309345	0.0	-0.0020348383462835194	-0.4570924446069957	0.0	0.06555116223507426	-0.5028582202166706	0.0	0.043904245883757506	-0.645844579530672	0.0	0.10542628206532742	-0.6644824036381267	0.0	0.09399620024234841	-0.6701788325779343	0.0	0.026627268523382253	-0.6658190999235684	0.0	-0.008316804786413898	-0.4599496115248251	0.0	0.017611675428395198	-0.5778618115339431	0.0	0.011474675265943519	-0.6185143888848305	0.0	0.09071240974984773	-0.6469776007482391	0.0	0.08789962232764867	-0.6543061258685308	0.0	0.007485047424369707	-0.6021873913799509	0.0	-0.006043437004701449	-0.2998206280143465	0.0	0.03671404521705644	-0.2370277111144332	0.0	0.03516744212023516	-0.28402511680074427	0.0	0.004945854817506219	-0.3171406642311376	0.0	0.03886889887082397	-0.3986753209953018	0.0	0.08783821750353862	-0.400818541813884	0.0	0.012381115331662435	-0.318245829131963	0.0	0.036833496364810266	-0.3998346115843242	0.0	0.08105584329834527	-0.3964225619463238	0.0
5	0.16761363636363635	-0.01769294218513005	-0.4570237822613798	0.0	-0.0026055262211631906	-0.4569925627760995	0.0	0.06416025174041745	-0.5026856806377136	0.0	0.04215462368494696	-0.6456650513341871	0.0	0.1036810617834574	-0.6643954000323773	0.0	0.09225555576561827	-0.6700666315404514	0.0	0.024752092026035538	-0.6655943529664188	0.0	-0.009390605883355775	-0.4598606764004012	0.0	0.01553069864057148	-0.5782927929987954	0.0	0.010138938217701057	-0.6182495564325694	0.0	0.08979424364032661	-0.6466221286753577	0.0	0.08699560654414415	-0.6540677921118312	0.0	0.006349039185225582	-0.6015775752610831	0.0	-0.0076923254357725455	-0.29968510067842047	0.0	0.034958526755516285	-0.23698846625060488	0.0	0.03337185672230228	-0.2838681464919308	0.0	0.00395369796058746	-0.31713335368079004	0.0	0.038654668857631067	-0.3987541719455052	0.0	0.08739077155656073	-0.4003555805580982	0.0	0.010651948956509855	-0.3180025619399784	0.0	0.035083849279381116	-0.3996364781677955	0.0	0.07919726595043455	-0.3957043941794839	0.0
